<svg width="112" height="37" viewBox="0 0 112 37" fill="none" xmlns="http://www.w3.org/2000/svg">
<g filter="url(#filter0_d_580_1844)">
<path d="M17.336 15.076C18.248 15.22 19.076 15.592 19.82 16.192C20.588 16.792 21.188 17.536 21.62 18.424C22.076 19.312 22.304 20.26 22.304 21.268C22.304 22.54 21.98 23.692 21.332 24.724C20.684 25.732 19.736 26.536 18.488 27.136C17.264 27.712 15.812 28 14.132 28H4.772V2.908H13.772C15.476 2.908 16.928 3.196 18.128 3.772C19.328 4.324 20.228 5.08 20.828 6.04C21.428 7 21.728 8.08 21.728 9.28C21.728 10.768 21.32 12.004 20.504 12.988C19.712 13.948 18.656 14.644 17.336 15.076ZM8.048 13.744H13.556C15.092 13.744 16.28 13.384 17.12 12.664C17.96 11.944 18.38 10.948 18.38 9.676C18.38 8.404 17.96 7.408 17.12 6.688C16.28 5.968 15.068 5.608 13.484 5.608H8.048V13.744ZM13.844 25.3C15.476 25.3 16.748 24.916 17.66 24.148C18.572 23.38 19.028 22.312 19.028 20.944C19.028 19.552 18.548 18.46 17.588 17.668C16.628 16.852 15.344 16.444 13.736 16.444H8.048V25.3H13.844ZM30.1261 11.476C30.7021 10.348 31.5181 9.472 32.5741 8.848C33.6541 8.224 34.9621 7.912 36.4981 7.912V11.296H35.6341C31.9621 11.296 30.1261 13.288 30.1261 17.272V28H26.8501V8.272H30.1261V11.476ZM41.9718 5.068C41.3478 5.068 40.8198 4.852 40.3878 4.42C39.9558 3.988 39.7398 3.46 39.7398 2.836C39.7398 2.212 39.9558 1.684 40.3878 1.252C40.8198 0.819999 41.3478 0.603999 41.9718 0.603999C42.5718 0.603999 43.0758 0.819999 43.4838 1.252C43.9158 1.684 44.1318 2.212 44.1318 2.836C44.1318 3.46 43.9158 3.988 43.4838 4.42C43.0758 4.852 42.5718 5.068 41.9718 5.068ZM43.5558 8.272V28H40.2798V8.272H43.5558ZM53.1352 10.972V22.6C53.1352 23.56 53.3392 24.244 53.7472 24.652C54.1552 25.036 54.8632 25.228 55.8712 25.228H58.2832V28H55.3312C53.5072 28 52.1392 27.58 51.2272 26.74C50.3152 25.9 49.8592 24.52 49.8592 22.6V10.972H47.3032V8.272H49.8592V3.304H53.1352V8.272H58.2832V10.972H53.1352Z" fill="black"/>
<path d="M65.5285 1.36V28H62.2525V1.36H65.5285ZM89.1118 17.38C89.1118 18.004 89.0758 18.664 89.0038 19.36H73.2358C73.3558 21.304 74.0158 22.828 75.2158 23.932C76.4398 25.012 77.9158 25.552 79.6438 25.552C81.0598 25.552 82.2358 25.228 83.1718 24.58C84.1318 23.908 84.8038 23.02 85.1878 21.916H88.7158C88.1878 23.812 87.1318 25.36 85.5478 26.56C83.9638 27.736 81.9958 28.324 79.6438 28.324C77.7718 28.324 76.0918 27.904 74.6038 27.064C73.1398 26.224 71.9878 25.036 71.1478 23.5C70.3078 21.94 69.8878 20.14 69.8878 18.1C69.8878 16.06 70.2958 14.272 71.1118 12.736C71.9278 11.2 73.0678 10.024 74.5318 9.208C76.0198 8.368 77.7238 7.948 79.6438 7.948C81.5158 7.948 83.1718 8.356 84.6118 9.172C86.0518 9.988 87.1558 11.116 87.9238 12.556C88.7158 13.972 89.1118 15.58 89.1118 17.38ZM85.7278 16.696C85.7278 15.448 85.4518 14.38 84.8998 13.492C84.3478 12.58 83.5918 11.896 82.6318 11.44C81.6958 10.96 80.6518 10.72 79.4998 10.72C77.8438 10.72 76.4278 11.248 75.2518 12.304C74.0998 13.36 73.4398 14.824 73.2718 16.696H85.7278ZM103.732 28L99.0521 20.656L94.5521 28H91.1321L97.5041 18.208L91.1321 8.272H94.8401L99.5201 15.58L103.984 8.272H107.404L101.068 18.028L107.44 28H103.732Z" fill="#939393"/>
</g>
<defs>
<filter id="filter0_d_580_1844" x="0.771973" y="0.604004" width="110.668" height="35.72" filterUnits="userSpaceOnUse" color-interpolation-filters="sRGB">
<feFlood flood-opacity="0" result="BackgroundImageFix"/>
<feColorMatrix in="SourceAlpha" type="matrix" values="0 0 0 0 0 0 0 0 0 0 0 0 0 0 0 0 0 0 127 0" result="hardAlpha"/>
<feOffset dy="4"/>
<feGaussianBlur stdDeviation="2"/>
<feComposite in2="hardAlpha" operator="out"/>
<feColorMatrix type="matrix" values="0 0 0 0 0 0 0 0 0 0 0 0 0 0 0 0 0 0 0.25 0"/>
<feBlend mode="normal" in2="BackgroundImageFix" result="effect1_dropShadow_580_1844"/>
<feBlend mode="normal" in="SourceGraphic" in2="effect1_dropShadow_580_1844" result="shape"/>
</filter>
</defs>
</svg>
